HIERARCHY
ROOT Hips
{
  OFFSET 0 0 0
  CHANNELS 6 Xposition Yposition Zposition Zrotation Yrotation Xrotation
  JOINT LeftThigh
  {
    OFFSET 8.409438 0 -5.917753
    CHANNELS 3 Zrotation Yrotation Xrotation
    JOINT LeftLeg
    {
      OFFSET 0 0 -42.358652
      CHANNELS 3 Zrotation Yrotation Xrotation
      JOINT LeftFoot
      {
        OFFSET 0 0 -39.357303
        CHANNELS 3 Zrotation Yrotation Xrotation
      }
    }
  }
  JOINT RightThigh
  {
    OFFSET -8.409438 0 -5.917753
    CHANNELS 3 Zrotation Yrotation Xrotation
    JOINT RightLeg
    {
      OFFSET 0 0 -42.358652
      CHANNELS 3 Zrotation Yrotation Xrotation
      JOINT RightFoot
      {
        OFFSET 0 0 -39.357303
        CHANNELS 3 Zrotation Yrotation Xrotation
      }
    }
  }
  JOINT SpineLow
  {
    OFFSET 0 0 4.719101
    CHANNELS 3 Zrotation Yrotation Xrotation
    JOINT SpineMid
    {
      OFFSET 0 0 12.899191
      CHANNELS 3 Zrotation Yrotation Xrotation
      JOINT Chest
      {
        OFFSET 0 0 12.899191
        CHANNELS 3 Zrotation Yrotation Xrotation
        JOINT LeftShoulder
        {
          OFFSET 7.550562 1.41573 9.438202
          CHANNELS 3 Zrotation Yrotation Xrotation
          JOINT LeftArm
          {
            OFFSET 9.155056 0 4.247191
            CHANNELS 3 Zrotation Yrotation Xrotation
            JOINT LeftForearm
            {
              OFFSET 0 0 25.771955
              CHANNELS 3 Zrotation Yrotation Xrotation
              JOINT LeftHand
              {
                OFFSET 0 0 25.197169
                CHANNELS 3 Zrotation Yrotation Xrotation
              }
            }
          }
        }
        JOINT RightShoulder
        {
          OFFSET -7.550562 1.41573 9.438202
          CHANNELS 3 Zrotation Yrotation Xrotation
          JOINT RightArm
          {
            OFFSET -9.155056 0 4.247191
            CHANNELS 3 Zrotation Yrotation Xrotation
            JOINT RightForearm
            {
              OFFSET 0 0 -25.771955
              CHANNELS 3 Zrotation Yrotation Xrotation
              JOINT RightHand
              {
                OFFSET 0 0 -25.197169
                CHANNELS 3 Zrotation Yrotation Xrotation
              }
            }
          }
        }
        JOINT Neck
        {
          OFFSET 0 0 15.101124
          CHANNELS 3 Zrotation Yrotation Xrotation
          JOINT Head
          {
            OFFSET 0 0 11.325843
            CHANNELS 3 Zrotation Yrotation Xrotation
            End Site
            {
              OFFSET 0 0 14.157303
            }
          }
        }
      }
    }
  }
}
MOTION
Frames: 16
Frame Time: 0.0
0.0  89.887642  0.0  -0.902756  10.107289  -121.854035  10.103674  -11.766994  18.342843  -7.758677  8.501072  21.122476  -6.176137  -0.084845  -0.257316  10.612333  10.799013  -98.212863  11.189864  15.258887  127.399126  18.001117  -1.870821  2.216838  -2.171739  -1.321565  0.451339  -5.96603  -3.568316  1.352463  -5.966029  -3.568316  1.352463  2.391931  39.874904  37.834033  -161.314863  57.030215  -101.16653  -38.584645  -4.467543  40.206281  88.780809  10.653795  28.130491  15.573445  13.539996  49.372659  27.522525  35.830352  -7.994566  -22.696897  13.640785  -78.569972  94.632476  -23.436599  2.326013  -17.68626  12.702142  16.659155  -13.572679  9.063403  12.828049  
0.0  89.887642  0.0  -0.657309  9.734914  -121.416525  10.615067  -11.743001  18.005463  -7.460671  8.425625  20.944111  -5.926041  0.001835  -0.408779  10.519806  10.847006  -97.591643  11.064017  15.052509  127.122913  18.056108  -1.661586  2.310295  -2.142798  -1.277837  0.469726  -5.88664  -3.447894  1.397203  -5.88664  -3.447894  1.397203  2.216871  39.729987  37.520251  -160.952993  56.491042  -101.326456  -38.262695  -4.253055  40.617844  90.511662  11.794138  29.101664  15.442205  13.534243  49.070493  27.435742  35.464144  -8.048243  -22.583146  13.926058  -78.611266  93.611956  -23.856834  3.403343  -17.517872  12.467495  16.466484  -13.437892  8.89676  12.675092  
0.0  89.887642  0.0  -0.357014  9.391416  -120.964986  11.060949  -11.507254  17.677039  -6.925467  8.206597  20.777102  -6.098594  0.06122  -0.455074  10.369894  10.743947  -96.975425  11.116915  14.81934  126.908663  18.158549  -1.430127  2.386101  -2.192087  -1.176899  0.456594  -6.018108  -3.172365  1.354516  -6.018108  -3.172365  1.354516  2.581426  39.307954  37.482842  -160.495296  55.913061  -101.50362  -37.94132  -4.143368  41.144594  91.986086  12.548459  30.29097  16.036345  12.949553  49.138804  27.176143  35.180949  -8.100569  -22.699184  14.202297  -78.811597  92.444183  -24.371646  4.822938  -16.983398  12.180736  16.401836  -13.031214  8.696813  12.608901  
0.0  89.887642  0.0  -0.049585  8.906074  -120.644646  11.529316  -11.414039  17.502735  -6.323193  8.052948  20.649832  -6.413149  0.02306  -0.590418  10.278131  10.395737  -96.26296  11.293933  14.545052  126.745429  18.264677  -1.166889  2.513459  -2.175203  -1.124523  0.49555  -5.972324  -3.026181  1.455356  -5.972324  -3.026181  1.455356  2.396311  39.133673  37.169681  -160.082606  55.33343  -101.643524  -37.496944  -4.166931  41.707311  93.172066  12.955119  31.527702  15.989765  12.956086  48.843401  27.152423  34.840715  -8.117209  -22.589781  14.251315  -79.1334  91.215408  -24.835383  6.69941  -16.724612  11.940754  16.094896  -12.82641  8.531257  12.368782  
0.0  89.887642  0.0  0.266085  8.544305  -120.36372  11.997045  -11.174552  17.373878  -6.071372  7.851361  20.504154  -6.761096  0.045891  -0.790822  10.085346  9.92975  -95.518529  10.660885  13.099453  126.67634  17.124282  -0.754789  2.465413  -2.182969  -1.029963  0.540371  -5.992837  -2.763723  1.56947  -5.992837  -2.763723  1.56947  1.965218  38.799253  36.722397  -159.478196  54.631674  -101.715367  -36.907202  -4.281644  42.30248  94.561019  13.267963  32.916935  16.339705  12.469444  48.752643  26.957327  34.583062  -8.167941  -22.773052  14.029646  -79.50892  90.044174  -25.112964  9.011941  -16.305212  11.60934  15.860639  -12.50138  8.298889  12.177969  
0.0  89.887642  0.0  0.591197  8.205111  -120.165777  12.338617  -10.974229  17.241964  -5.691477  7.658175  20.411272  -6.871979  0.11814  -0.777681  9.774405  9.478445  -94.801518  11.013331  12.634537  126.765125  17.288459  -0.501661  2.535765  -2.176775  -0.946425  0.595381  -5.97559  -2.530782  1.711842  -5.975589  -2.530782  1.711842  1.574195  38.572532  36.430976  -158.846934  54.127003  -101.622153  -36.084754  -4.459662  42.931636  96.244712  13.430759  34.26225  16.187798  12.459876  48.346422  26.910712  34.251971  -8.181643  -22.486956  13.5798  -80.02645  89.052136  -25.120034  11.419045  -16.108429  11.306718  15.539937  -12.341825  8.084592  11.927882  
0.0  89.887642  0.0  0.87048  7.85057  -119.947373  12.669792  -10.708589  16.938574  -5.312555  7.49964  20.474867  -7.214316  0.110986  -0.805967  9.449209  8.988374  -94.140361  11.418381  12.203897  126.968138  17.467779  -0.237713  2.610767  -2.179831  -0.857277  0.643175  -5.982871  -2.282939  1.834337  -5.98287  -2.282939  1.834337  1.175162  38.287124  36.108008  -158.337424  53.807709  -101.58511  -35.02909  -4.87376  43.584672  97.410102  13.364809  34.954448  16.391801  12.079135  48.180689  26.451776  34.02464  -8.37809  -22.306394  13.188497  -80.604569  88.514315  -24.903266  13.448436  -15.849465  10.973509  15.280851  -12.136607  7.847088  11.72216  
0.0  89.887642  0.0  1.149349  7.516179  -119.510363  13.181085  -10.452488  16.442611  -5.118067  7.332887  20.541651  -7.460194  0.095275  -0.736752  9.063993  8.584922  -93.645876  11.84724  11.846457  127.203731  17.618455  0.027739  2.696429  -2.214991  -0.778993  0.649177  -6.076704  -2.06763  1.844628  -6.076704  -2.06763  1.844628  0.953356  38.068859  35.793683  -157.860228  53.604475  -101.610404  -33.964839  -5.403659  44.305409  98.148278  13.507121  35.401873  16.385402  12.068133  47.736424  26.598058  33.845107  -8.330924  -22.059617  12.863265  -81.280439  88.365349  -24.528121  15.116672  -15.51415  10.701408  15.043931  -11.876009  7.656589  11.532996  
0.0  89.887642  0.0  1.458585  7.263606  -118.834089  13.611365  -9.96063  15.67072  -5.067934  7.155185  20.640576  -7.906493  0.050869  -0.688521  8.566404  8.342341  -93.358306  12.158152  11.485065  127.468421  17.698193  0.359512  2.804735  -2.245623  -0.692374  0.639754  -6.157469  -1.831127  1.811664  -6.157469  -1.831127  1.811663  0.447247  37.784172  35.173739  -157.668684  53.532966  -101.716591  -33.261197  -6.124067  44.981565  98.755793  13.757082  35.805466  16.495622  11.806945  47.25609  26.44026  33.796897  -8.337688  -22.063467  12.86164  -82.174689  88.399277  -24.217076  16.221176  -15.141745  10.396324  14.802295  -11.587066  7.442071  11.33922  
0.0  89.887642  0.0  1.671507  6.708245  -118.217373  14.140105  -9.692168  14.784818  -5.153294  7.074577  20.904499  -8.075433  0.062745  -0.600224  8.291143  7.952332  -92.938652  12.465149  11.218076  127.692428  17.785916  0.691282  2.929941  -2.261073  -0.636854  0.629819  -6.197757  -1.680033  1.779686  -6.197758  -1.680033  1.779686  0.062639  37.486367  34.56622  -157.547343  53.567266  -101.929758  -32.998372  -6.737879  45.739999  99.125008  14.003313  36.267995  16.395402  11.757306  46.579515  26.872456  33.814293  -8.126902  -22.229938  13.156498  -83.16833  88.656522  -24.145948  16.849798  -14.778253  10.113977  14.576629  -11.305632  7.243798  11.158296  
0.0  89.887642  0.0  1.861387  6.120216  -117.468844  14.406345  -9.314727  13.675054  -5.571368  7.014023  21.019554  -7.527246  0.2808  -0.260856  8.050298  7.639874  -92.552544  12.720972  11.017209  127.915055  20.267339  1.197347  3.561692  -2.248775  -0.58461  0.620821  -6.162374  -1.538564  1.749891  -6.162374  -1.538564  1.749891  -0.657741  37.14878  33.706499  -158.189466  53.727812  -101.923241  -33.167845  -8.133683  46.08738  99.134119  14.069831  36.624737  16.07545  11.612129  45.842989  27.097411  33.995539  -8.084373  -22.351762  13.659785  -84.279705  88.944616  -24.27604  17.23891  -14.460365  9.773913  14.314075  -11.056745  7.001745  10.949736  
0.0  89.887642  0.0  2.030256  5.270971  -116.787004  14.619054  -9.019448  12.589421  -5.579497  7.097178  21.391889  -7.277552  0.364438  -0.154125  8.068038  7.329208  -92.05313  12.807567  10.797394  128.159423  20.325464  1.665229  3.730757  -2.207697  -0.549546  0.609913  -6.048831  -1.44493  1.715935  -6.048831  -1.44493  1.715936  -1.265915  36.796141  33.014539  -157.907828  53.775763  -101.928201  -33.40263  -8.587261  46.976128  99.012609  13.878099  36.959148  15.751539  11.653406  45.045192  27.701735  34.101331  -7.942532  -22.516786  14.055483  -85.390879  89.292188  -24.415597  17.598197  -14.162114  9.460888  14.076688  -10.823656  6.77876  10.761112  
0.0  89.887642  0.0  2.225018  4.392079  -116.034878  14.66591  -8.697697  11.451519  -5.318971  7.250937  21.780007  -6.960059  0.434196  -0.035306  8.122422  7.207191  -91.481107  12.660118  10.534304  128.368376  20.339825  2.189346  3.906878  -2.146212  -0.505211  0.590936  -5.879131  -1.327181  1.658822  -5.879131  -1.327181  1.658822  -2.076978  36.36108  32.284803  -157.485656  53.736137  -101.630522  -33.57464  -9.081718  47.870817  98.737312  13.497233  37.117672  15.441544  11.443559  44.214233  27.898298  34.330759  -7.824506  -22.348493  14.114223  -86.549219  89.803977  -24.491616  17.970819  -13.829508  9.117717  13.853276  -10.564664  6.533384  10.582084  
0.0  89.887642  0.0  2.359954  3.155667  -115.475355  14.899565  -8.632465  10.493625  -4.950052  7.42022  22.140381  -6.808506  0.507817  0.001171  8.445376  6.889711  -90.605811  12.459975  10.260134  128.555909  20.33964  2.772817  4.086026  -2.041918  -0.476705  0.636174  -5.594091  -1.248164  1.777919  -5.594091  -1.248164  1.777919  -3.042796  35.852039  31.328925  -156.54172  53.650676  -101.125509  -33.643687  -9.243221  49.046825  98.631744  13.091745  37.208508  14.892243  11.27083  43.000607  28.729715  34.759138  -7.436734  -22.301457  14.10155  -87.650252  90.26929  -24.623926  18.428118  -13.590954  8.676572  13.467645  -10.372003  6.215693  10.281522  
0.0  89.887642  0.0  2.524902  1.787638  -114.997636  15.356306  -8.736089  9.69101  -4.939679  7.735575  22.303815  -6.630635  0.604907  0.00814  8.842835  6.540352  -89.490489  12.272624  9.966092  128.67774  20.295853  3.365166  4.278407  -1.924646  -0.464811  0.677615  -5.273927  -1.215571  1.888019  -5.273927  -1.215571  1.888019  -4.023719  35.48194  30.43124  -155.469994  53.558476  -100.386769  -33.547366  -9.623691  50.26118  98.261702  12.878196  37.260298  14.62096  11.054415  42.167661  29.031211  35.371509  -7.414715  -22.075606  14.182641  -88.785765  90.543929  -24.848982  18.962941  -13.249493  8.32157  13.108425  -10.10459  5.964036  10.000974  
0.0  89.887642  0.0  2.681893  0.282014  -114.546414  15.898308  -8.897477  8.888638  -4.796786  8.0292  22.511044  -6.365392  0.659178  0.103199  9.29037  6.123174  -88.22942  12.127436  9.671024  128.751726  20.232085  3.9733  4.464988  -1.798022  -0.460008  0.706543  -4.928176  -1.203953  1.964427  -4.928176  -1.203953  1.964427  -4.881795  35.214928  29.665646  -154.011767  53.498815  -99.480071  -33.295906  -9.865355  51.623731  97.618633  12.809637  37.189443  14.120222  11.090212  41.380362  30.074287  36.187298  -7.354474  -22.066677  14.399746  -89.785374  90.765892  -25.256208  19.549863  -12.946409  7.970551  12.801462  -9.867042  5.713149  9.760472  
